<?xml version="1.0" encoding="UTF-8"?>
<svg id="Layer_1" data-name="Layer 1" xmlns="http://www.w3.org/2000/svg" viewBox="0 0 477.43 590.71">
  <defs>
    <style>
      .cls-1 {
        fill: gray;
      }

      .cls-1, .cls-2, .cls-3, .cls-4 {
        stroke: #231f20;
        stroke-linecap: round;
        stroke-miterlimit: 10;
      }

      .cls-2 {
        fill: #e6e7e8;
      }

      .cls-3 {
        fill: #b3b3b3;
      }

      .cls-4 {
        fill: #e6e6e6;
      }
    </style>
  </defs>
  <path class="cls-1" d="M386.05,148.34c0,81.65-66.19,147.84-147.84,147.84S90.38,229.98,90.38,148.34c0-39.73,15.67-75.79,41.16-102.36,5.94-6.18,33.65,12.69,40.58,7.61,5.42-3.98-10.12-32.14-4.18-35.36C188.84,6.92,212.78.5,238.21.5c81.65,0,147.84,66.19,147.84,147.84Z"/>
  <path class="cls-3" d="M386.05,148.34c0,81.65-66.19,147.84-147.84,147.84S90.38,229.98,90.38,148.34s139.07-40.41,209.35,13.69c64.7,49.8,86.32-95.33,86.32-13.69Z"/>
  <path class="cls-2" d="M362.21,194.02c28.19-22.1,16.5,6.99,3.69,28.88-25.65,43.83-73.23,73.27-127.68,73.27-60.33,0-112.22-36.14-135.2-87.94-8.12-18.31-14.12-48.93-1.38-66.02,33.52-44.95,91.43-8.96,124.19,50.29,39.51,71.45,112.99,19.85,136.38,1.52Z"/>
  <path class="cls-1" d="M476.93,458.02c0-73.01-106.43-132.19-237.71-132.19-51.55,0-99.27,9.13-138.22,24.63-6.75,2.69,7.46,32.5,1.27,35.56-6.92,3.41-34.17-19.9-40.33-16.07C24.35,393.34,1.5,424.2,1.5,458.02c0,73.01,106.43,132.19,237.71,132.19s237.71-59.18,237.71-132.19Z"/>
  <path class="cls-3" d="M475.93,458.02c0-73.01-56.49,44.23-168.19-24.76C204.12,369.26.5,385.02.5,458.02s106.43,132.19,237.71,132.19,237.71-59.18,237.71-132.19Z"/>
  <path class="cls-4" d="M475.93,458.02c0-19.8-150.67,71.24-263.43,49.14S43.36,438.6,15.17,449.26c-22.09,8.36-10.26,37.91-2.13,51.24,31.81,52.17,120.61,89.71,225.18,89.71,131.29,0,237.71-59.18,237.71-132.19Z"/>
</svg>