<?xml version="1.0" encoding="UTF-8"?>
<svg id="Layer_1" data-name="Layer 1" xmlns="http://www.w3.org/2000/svg" viewBox="0 0 523.5 349.25">
  <defs>
    <style>
      .cls-1 {
        fill: gray;
      }

      .cls-1, .cls-2, .cls-3, .cls-4 {
        stroke: #231f20;
        stroke-linecap: round;
        stroke-miterlimit: 10;
      }

      .cls-2 {
        fill: #e6e7e8;
      }

      .cls-3 {
        fill: #b3b3b3;
      }

      .cls-4 {
        fill: #fff;
      }
    </style>
  </defs>
  <path class="cls-1" d="M90.04.5l19.24,73.83H34.5C15.72,74.33.5,59.11.5,40.33v-5.83C.5,15.72,15.72.5,34.5.5h55.54Z"/>
  <polygon class="cls-3" points="116.27 .5 135.51 74.33 123.57 74.33 104.34 .5 116.27 .5"/>
  <polygon class="cls-2" points="157.4 74.33 145.55 74.33 126.31 .5 138.17 .5 157.4 74.33"/>
  <path class="cls-4" d="M522.5,34.5v5.83c0,18.78-15.22,34-34,34H164.24L145.01.5h343.49c18.78,0,34,15.22,34,34Z"/>
  <path class="cls-1" d="M161.53,274.91l19.23,73.84H35c-18.78,0-34-15.23-34-34v-5.84c0-18.77,15.22-34,34-34h126.53Z"/>
  <polygon class="cls-3" points="187.75 274.91 206.99 348.75 195.05 348.75 175.82 274.91 187.75 274.91"/>
  <polygon class="cls-2" points="209.65 274.91 228.88 348.75 217.03 348.75 197.8 274.91 209.65 274.91"/>
  <path class="cls-4" d="M523,308.91v5.84c0,18.77-15.22,34-34,34h-253.28l-19.23-73.84h272.51c18.78,0,34,15.23,34,34Z"/>
  <path class="cls-1" d="M125.79,137.71l19.23,73.83H34.5c-18.78,0-34-15.22-34-34v-5.84c0-18.77,15.22-33.99,34-33.99h91.29Z"/>
  <polygon class="cls-3" points="152.02 137.71 171.25 211.54 159.31 211.54 140.08 137.71 152.02 137.71"/>
  <polygon class="cls-2" points="173.91 137.71 193.14 211.54 181.29 211.54 162.06 137.71 173.91 137.71"/>
  <path class="cls-4" d="M522.5,171.7v5.84c0,18.78-15.22,34-34,34H199.98l-19.23-73.83h307.75c18.78,0,34,15.22,34,33.99Z"/>
</svg>